<mxfile host="Electron" agent="Mozilla/5.0 (Windows NT 10.0; Win64; x64) AppleWebKit/537.36 (KHTML, like Gecko) draw.io/28.1.2 Chrome/138.0.7204.243 Electron/37.4.0 Safari/537.36" version="28.1.2">
  <diagram name="Side-1" id="R4TACgNa5bXCF1-suq11">
    <mxGraphModel dx="1426" dy="841" grid="1" gridSize="10" guides="1" tooltips="1" connect="1" arrows="1" fold="1" page="1" pageScale="1" pageWidth="827" pageHeight="1169" math="0" shadow="0">
      <root>
        <mxCell id="0" />
        <mxCell id="1" parent="0" />
        <mxCell id="U2dxqgKhI5Apjmw7mqh6-3" style="edgeStyle=orthogonalEdgeStyle;rounded=0;orthogonalLoop=1;jettySize=auto;html=1;exitX=0.5;exitY=1;exitDx=0;exitDy=0;entryX=0.5;entryY=0;entryDx=0;entryDy=0;" edge="1" parent="1" source="U2dxqgKhI5Apjmw7mqh6-1" target="U2dxqgKhI5Apjmw7mqh6-2">
          <mxGeometry relative="1" as="geometry" />
        </mxCell>
        <mxCell id="U2dxqgKhI5Apjmw7mqh6-1" value="Start" style="rounded=1;whiteSpace=wrap;html=1;" vertex="1" parent="1">
          <mxGeometry x="354" y="40" width="120" height="60" as="geometry" />
        </mxCell>
        <mxCell id="U2dxqgKhI5Apjmw7mqh6-11" style="edgeStyle=orthogonalEdgeStyle;rounded=0;orthogonalLoop=1;jettySize=auto;html=1;exitX=0.5;exitY=1;exitDx=0;exitDy=0;entryX=0.5;entryY=0;entryDx=0;entryDy=0;" edge="1" parent="1" source="U2dxqgKhI5Apjmw7mqh6-2" target="U2dxqgKhI5Apjmw7mqh6-4">
          <mxGeometry relative="1" as="geometry" />
        </mxCell>
        <mxCell id="U2dxqgKhI5Apjmw7mqh6-2" value="Welcome message" style="rounded=0;whiteSpace=wrap;html=1;" vertex="1" parent="1">
          <mxGeometry x="346" y="170" width="136" height="70" as="geometry" />
        </mxCell>
        <mxCell id="U2dxqgKhI5Apjmw7mqh6-6" style="edgeStyle=orthogonalEdgeStyle;rounded=0;orthogonalLoop=1;jettySize=auto;html=1;exitX=0;exitY=1;exitDx=0;exitDy=0;" edge="1" parent="1" source="U2dxqgKhI5Apjmw7mqh6-4" target="U2dxqgKhI5Apjmw7mqh6-5">
          <mxGeometry relative="1" as="geometry" />
        </mxCell>
        <mxCell id="U2dxqgKhI5Apjmw7mqh6-18" value="P(lay game)" style="edgeLabel;html=1;align=center;verticalAlign=middle;resizable=0;points=[];" vertex="1" connectable="0" parent="U2dxqgKhI5Apjmw7mqh6-6">
          <mxGeometry x="0.4742" relative="1" as="geometry">
            <mxPoint as="offset" />
          </mxGeometry>
        </mxCell>
        <mxCell id="U2dxqgKhI5Apjmw7mqh6-9" style="edgeStyle=orthogonalEdgeStyle;rounded=0;orthogonalLoop=1;jettySize=auto;html=1;exitX=1;exitY=1;exitDx=0;exitDy=0;entryX=0.5;entryY=0;entryDx=0;entryDy=0;" edge="1" parent="1" source="U2dxqgKhI5Apjmw7mqh6-4" target="U2dxqgKhI5Apjmw7mqh6-7">
          <mxGeometry relative="1" as="geometry" />
        </mxCell>
        <mxCell id="U2dxqgKhI5Apjmw7mqh6-17" value="E(xit game)" style="edgeLabel;html=1;align=center;verticalAlign=middle;resizable=0;points=[];" vertex="1" connectable="0" parent="U2dxqgKhI5Apjmw7mqh6-9">
          <mxGeometry x="0.4082" y="1" relative="1" as="geometry">
            <mxPoint as="offset" />
          </mxGeometry>
        </mxCell>
        <mxCell id="U2dxqgKhI5Apjmw7mqh6-13" style="edgeStyle=orthogonalEdgeStyle;rounded=0;orthogonalLoop=1;jettySize=auto;html=1;exitX=0;exitY=0.5;exitDx=0;exitDy=0;" edge="1" parent="1" source="U2dxqgKhI5Apjmw7mqh6-4">
          <mxGeometry relative="1" as="geometry">
            <mxPoint x="190" y="330" as="targetPoint" />
          </mxGeometry>
        </mxCell>
        <mxCell id="U2dxqgKhI5Apjmw7mqh6-25" value="Unknown input" style="edgeLabel;html=1;align=center;verticalAlign=middle;resizable=0;points=[];" vertex="1" connectable="0" parent="U2dxqgKhI5Apjmw7mqh6-13">
          <mxGeometry x="0.1118" y="-1" relative="1" as="geometry">
            <mxPoint as="offset" />
          </mxGeometry>
        </mxCell>
        <mxCell id="U2dxqgKhI5Apjmw7mqh6-4" value="Menu" style="rhombus;whiteSpace=wrap;html=1;" vertex="1" parent="1">
          <mxGeometry x="364" y="280" width="100" height="100" as="geometry" />
        </mxCell>
        <mxCell id="U2dxqgKhI5Apjmw7mqh6-5" value="Start game" style="rounded=0;whiteSpace=wrap;html=1;" vertex="1" parent="1">
          <mxGeometry x="250" y="450" width="80" height="40" as="geometry" />
        </mxCell>
        <mxCell id="U2dxqgKhI5Apjmw7mqh6-24" style="edgeStyle=orthogonalEdgeStyle;rounded=0;orthogonalLoop=1;jettySize=auto;html=1;exitX=0.5;exitY=1;exitDx=0;exitDy=0;entryX=1;entryY=0.5;entryDx=0;entryDy=0;" edge="1" parent="1" source="U2dxqgKhI5Apjmw7mqh6-7" target="U2dxqgKhI5Apjmw7mqh6-22">
          <mxGeometry relative="1" as="geometry" />
        </mxCell>
        <mxCell id="U2dxqgKhI5Apjmw7mqh6-7" value="Exit game" style="rounded=0;whiteSpace=wrap;html=1;" vertex="1" parent="1">
          <mxGeometry x="500" y="450" width="80" height="40" as="geometry" />
        </mxCell>
        <mxCell id="U2dxqgKhI5Apjmw7mqh6-10" value="Error message" style="rounded=0;whiteSpace=wrap;html=1;" vertex="1" parent="1">
          <mxGeometry x="70" y="280" width="120" height="60" as="geometry" />
        </mxCell>
        <mxCell id="U2dxqgKhI5Apjmw7mqh6-15" style="edgeStyle=orthogonalEdgeStyle;rounded=0;orthogonalLoop=1;jettySize=auto;html=1;exitX=1;exitY=0.25;exitDx=0;exitDy=0;entryX=0.36;entryY=0.15;entryDx=0;entryDy=0;entryPerimeter=0;" edge="1" parent="1" source="U2dxqgKhI5Apjmw7mqh6-10" target="U2dxqgKhI5Apjmw7mqh6-4">
          <mxGeometry relative="1" as="geometry" />
        </mxCell>
        <mxCell id="U2dxqgKhI5Apjmw7mqh6-23" style="edgeStyle=orthogonalEdgeStyle;rounded=0;orthogonalLoop=1;jettySize=auto;html=1;exitX=0.5;exitY=1;exitDx=0;exitDy=0;entryX=0;entryY=0.5;entryDx=0;entryDy=0;" edge="1" parent="1" source="U2dxqgKhI5Apjmw7mqh6-19" target="U2dxqgKhI5Apjmw7mqh6-22">
          <mxGeometry relative="1" as="geometry" />
        </mxCell>
        <mxCell id="U2dxqgKhI5Apjmw7mqh6-19" value="Run game" style="rounded=0;whiteSpace=wrap;html=1;" vertex="1" parent="1">
          <mxGeometry x="210" y="555" width="120" height="60" as="geometry" />
        </mxCell>
        <mxCell id="U2dxqgKhI5Apjmw7mqh6-21" style="edgeStyle=orthogonalEdgeStyle;rounded=0;orthogonalLoop=1;jettySize=auto;html=1;exitX=0.5;exitY=1;exitDx=0;exitDy=0;entryX=0.667;entryY=0.017;entryDx=0;entryDy=0;entryPerimeter=0;" edge="1" parent="1" source="U2dxqgKhI5Apjmw7mqh6-5" target="U2dxqgKhI5Apjmw7mqh6-19">
          <mxGeometry relative="1" as="geometry" />
        </mxCell>
        <mxCell id="U2dxqgKhI5Apjmw7mqh6-22" value="End" style="rounded=1;whiteSpace=wrap;html=1;" vertex="1" parent="1">
          <mxGeometry x="344" y="680" width="120" height="60" as="geometry" />
        </mxCell>
      </root>
    </mxGraphModel>
  </diagram>
</mxfile>
